# xmcd
#
# Track frame offsets: 
#        150
#        13866
#        42644
#        71946
#        94048
#        114403
#        141064
#        172075
#        193457
#        227045
#        248769
#        264959
#        287582
#        309189
#
# Disc length: 4529 seconds
#
# Revision: 14
# Processed by: cddbd v1.5.2PL0 Copyright (c) Steve Scherf et al.
# Submitted via: ExactAudioCopy v1.0b3
#
DISCID=cb11af0e
DTITLE=Dan Brown - Diabolus CD 2
DYEAR=2005
DGENRE=Hörbuch
TTITLE0=Dan Brown - Diabolus CD 2 - 016
TTITLE1=Dan Brown - Diabolus CD 2 - 017
TTITLE2=Dan Brown - Diabolus CD 2 - 018
TTITLE3=Dan Brown - Diabolus CD 2 - 019
TTITLE4=Dan Brown - Diabolus CD 2 - 020
TTITLE5=Dan Brown - Diabolus CD 2 - 021
TTITLE6=Dan Brown - Diabolus CD 2 - 022
TTITLE7=Dan Brown - Diabolus CD 2 - 023
TTITLE8=Dan Brown - Diabolus CD 2 - 024
TTITLE9=Dan Brown - Diabolus CD 2 - 025
TTITLE10=Dan Brown - Diabolus CD 2 - 026
TTITLE11=Dan Brown - Diabolus CD 2 - 027
TTITLE12=Dan Brown - Diabolus CD 2 - 028
TTITLE13=Dan Brown - Diabolus CD 2 - 029
EXTD=YEAR: 2005
EXTT0=
EXTT1=
EXTT2=
EXTT3=
EXTT4=
EXTT5=
EXTT6=
EXTT7=
EXTT8=
EXTT9=
EXTT10=
EXTT11=
EXTT12=
EXTT13=
PLAYORDER=
